<?xml version="1.0" encoding="utf-8"?>
<!-- Generator: Adobe Illustrator 20.1.0, SVG Export Plug-In . SVG Version: 6.00 Build 0)  -->
<svg version="1.1" id="Warstwa_1" xmlns="http://www.w3.org/2000/svg" xmlns:xlink="http://www.w3.org/1999/xlink" x="0px" y="0px"
	 viewBox="0 0 214.2 214.2" style="enable-background:new 0 0 214.2 214.2;" xml:space="preserve">
<title>Zasób 21</title>
<g id="Warstwa_2">
	<g id="Warstwa_1-2">
		<path d="M107.5,129.4c-22,0-39.8-17.8-39.8-39.8s17.8-39.8,39.8-39.8s39.8,17.8,39.8,39.8C147.3,111.6,129.5,129.4,107.5,129.4z
			 M107.5,57c-18.2,0-32.9,14.7-32.9,32.9s14.7,32.9,32.9,32.9s32.9-14.7,32.9-32.9l0,0C140,71.7,125.4,57,107.5,57L107.5,57z"/>
		<path d="M107.5,214.2c-24.3,0.1-47.9-8.2-66.9-23.4l4.4-5.5c36.5,29.2,88.5,29.2,125,0l4.4,5.5C155,205.8,132,214.2,107.5,214.2z"
			/>
		<path d="M44.6,194.1l-4.4-3.3C-6,153.9-13.5,86.5,23.5,40.3S127.8-13.4,174,23.5s53.7,104.4,16.8,150.6
			c-4.9,6.2-10.6,11.8-16.8,16.8l-4.4,3.3l-1.1-5.5c-7.7-33.9-41.5-55.1-75.4-47.4c-23.6,5.4-42,23.8-47.4,47.4L44.6,194.1z
			 M107.5,7C52.2,7,7.4,51.8,7.3,107.1c-0.1,28.6,12.1,55.8,33.6,74.6c9.1-29.1,36-48.9,66.5-49c30.6-0.2,57.6,19.7,66.5,49
			c41.3-36.7,45-99.9,8.3-141.2C163.4,19.1,136.1,6.9,107.5,7z"/>
	</g>
</g>
</svg>
